<svg width="174" height="48" viewBox="0 0 174 48" fill="none" xmlns="http://www.w3.org/2000/svg">
<path fill-rule="evenodd" clip-rule="evenodd" d="M120.715 0.00851755C120.973 0.0357101 121.395 0.171673 121.653 0.294039C121.911 0.416406 122.251 0.701928 122.428 0.933064C122.591 1.1506 122.781 1.55849 122.849 1.81682C122.917 2.07515 122.958 2.51023 122.931 2.76856C122.904 3.02689 122.632 3.76109 122.333 4.40012C122.02 5.03914 121.503 5.96369 121.177 6.46675C120.851 6.98341 120.538 7.3913 120.47 7.3913C120.416 7.40489 120.117 7.05139 119.804 6.61631C119.491 6.18123 119.002 5.33826 118.689 4.74002C118.39 4.14179 118.077 3.33961 118.009 2.97251C117.914 2.49664 117.928 2.12954 118.036 1.74884C118.118 1.44972 118.417 0.987449 118.675 0.715524C118.947 0.443598 119.382 0.171673 119.695 0.0900952C119.994 0.0221138 120.457 -0.018675 120.715 0.00851755ZM46.7647 3.7067L50.9795 3.74749L50.9659 11.1983L51.605 10.6408C51.9721 10.3281 52.4751 9.97459 52.7335 9.83863C52.9918 9.70266 53.5492 9.49872 53.9571 9.38995C54.365 9.26758 55.0448 9.13162 55.4527 9.09083C55.8606 9.03645 56.622 9.06364 57.1522 9.14522C57.6961 9.24039 58.5119 9.49872 59.0557 9.75705C59.6676 10.0562 60.2386 10.4641 60.6465 10.9127C61.0136 11.2934 61.4759 11.9868 61.707 12.4491C61.9245 12.925 62.2101 13.7272 62.3188 14.2574C62.482 15.0052 62.5228 16.3376 62.5228 25.8822H58.3079V21.0827C58.3079 18.3771 58.2535 15.9705 58.172 15.5491C58.0904 15.1412 57.8592 14.5293 57.6553 14.203C57.4378 13.8359 57.0163 13.4144 56.622 13.1833C55.9966 12.789 55.8606 12.7618 54.6505 12.7618C53.4677 12.7618 53.2773 12.8026 52.6927 13.1289C52.3392 13.3465 51.9041 13.7408 51.7137 14.0127C51.5234 14.2982 51.2786 14.8285 51.1699 15.2092C50.9931 15.7802 50.9659 17.2214 50.9659 33.4961L51.469 32.9387C51.7545 32.6396 52.2576 32.2045 52.5975 32.0006C52.9374 31.783 53.5764 31.4703 54.0251 31.3207C54.4738 31.1712 55.3031 30.9944 55.8606 30.9536C56.5676 30.8993 57.193 30.94 57.9 31.0896C58.4575 31.212 59.2869 31.4975 59.7355 31.7286C60.1842 31.9462 60.8232 32.3677 61.1631 32.6532C61.5031 32.9387 62.0605 33.6049 62.414 34.1216C62.7539 34.6382 63.2162 35.5492 63.4201 36.1474C63.7328 37.0584 63.8008 37.5342 63.8552 39.0026C63.9096 40.4574 63.8688 40.9605 63.6513 41.8579C63.5017 42.4561 63.1618 43.367 62.9171 43.8973C62.6043 44.5363 62.1421 45.1618 61.5031 45.8144C60.864 46.467 60.2658 46.9157 59.6676 47.2148C59.1781 47.4459 58.3895 47.7179 57.9 47.8266C57.4106 47.9218 56.5404 47.9898 55.9558 47.9626C55.3847 47.9354 54.5282 47.7858 54.0523 47.6227C53.59 47.4595 52.8966 47.1332 52.5295 46.8885C52.1488 46.6437 51.6457 46.2223 50.9659 45.4609V47.7722H46.7511L46.7647 3.7067ZM9.14378 4.06021L9.25255 4.4681C9.32053 4.68564 9.36132 8.30225 9.36132 12.4899C9.36132 16.6776 9.37492 20.1038 9.38852 20.1174C9.41571 20.131 11.863 17.7653 14.8406 14.8557C17.8182 11.946 20.3199 9.5667 20.4151 9.5667C20.5103 9.5531 24.8475 13.8223 30.0549 19.0433C36.2412 25.2296 39.5587 28.6423 39.5994 28.8734C39.6402 29.0502 39.7082 33.333 39.749 38.3908C39.7898 43.435 39.7762 47.6363 39.7218 47.7314C39.6402 47.8674 38.6341 47.9218 35.6021 47.9762C32.9101 48.0306 31.4689 48.0034 30.8434 47.7722V32.2045L20.4423 21.7762L9.36132 32.8843V40.2263C9.36132 44.7131 9.32053 47.6363 9.23896 47.7722C9.13019 47.9354 8.49116 47.9762 4.95613 47.9762C1.74741 47.9762 0.782071 47.9354 0.632512 47.7994C0.496549 47.6499 0.455761 43.503 0.414972 26.0182C0.374183 6.18123 0.387779 4.40012 0.591723 4.20977C0.782071 4.01942 1.36671 3.99223 9.14378 4.06021ZM73.6037 9.09083C74.2836 9.13162 75.1945 9.25399 75.6432 9.37635C76.0919 9.48512 76.894 9.81143 77.4107 10.0834C77.9953 10.3825 78.7295 10.9263 79.2598 11.4566C79.9124 12.1092 80.3067 12.6667 80.7282 13.5096C81.0681 14.203 81.3808 15.0868 81.5032 15.753C81.6527 16.5008 81.6935 17.2078 81.6391 18.0236C81.5984 18.6762 81.4896 19.5056 81.408 19.8591C81.3264 20.2126 81.0409 20.9604 80.7826 21.5314C80.4155 22.2928 80.0484 22.7959 79.2598 23.5845C78.5528 24.2915 77.9274 24.7673 77.2747 25.0936C76.7581 25.3656 75.9287 25.6783 75.4392 25.8143C74.8818 25.9638 74.0388 26.059 73.1279 26.059C72.3529 26.059 71.3739 25.991 70.9525 25.8822C70.5446 25.7871 69.7152 25.4743 69.117 25.1888C68.5187 24.9033 67.7573 24.4274 67.4174 24.1419C67.0911 23.8564 66.5201 23.1902 66.1666 22.6735C65.8267 22.1569 65.378 21.2731 65.174 20.7156C64.9021 19.9271 64.7934 19.3288 64.739 18.1324C64.6846 16.9495 64.7254 16.3105 64.8885 15.5491C65.0109 14.978 65.31 14.0943 65.5683 13.5776C65.8403 12.9794 66.3433 12.2724 66.8872 11.6877C67.3766 11.1711 68.0972 10.5456 68.5051 10.3009C68.9266 10.0562 69.62 9.71626 70.0687 9.5667C70.5174 9.40355 71.2244 9.22679 71.6323 9.15881C72.0538 9.09083 72.9375 9.06364 73.6037 9.09083ZM109.226 9.07723C110.015 9.10443 110.939 9.24039 111.401 9.38995C111.85 9.52591 112.503 9.79784 112.829 9.98818C113.169 10.1921 113.74 10.6544 114.093 11.0351C114.447 11.4294 114.855 12.0004 115.004 12.3131C115.154 12.6259 115.344 13.2241 115.426 13.6456C115.548 14.2438 115.548 14.407 115.399 14.4886C115.29 14.5429 114.447 14.5837 113.509 14.5837C112.584 14.5837 111.755 14.5429 111.66 14.4886C111.578 14.4342 111.483 14.2302 111.442 14.0535C111.388 13.8631 111.211 13.5232 111.048 13.3057C110.871 13.0881 110.477 12.8026 110.178 12.6667C109.851 12.5171 109.308 12.4219 108.791 12.4219C108.329 12.4219 107.744 12.4899 107.499 12.5987C107.255 12.6938 106.915 12.9522 106.751 13.1697C106.575 13.3873 106.439 13.7136 106.439 13.8767C106.439 14.0399 106.534 14.3526 106.629 14.5565C106.738 14.7741 107.078 15.0596 107.445 15.2363C107.798 15.3995 109.008 15.8074 110.151 16.1473C111.293 16.4736 112.557 16.8951 112.965 17.0718C113.386 17.2622 113.957 17.6293 114.257 17.8876C114.556 18.146 114.991 18.6898 115.208 19.0977C115.589 19.7639 115.616 19.9271 115.616 21.1235C115.616 22.2384 115.562 22.4968 115.263 23.095C115.059 23.4621 114.61 24.0467 114.243 24.3866C113.876 24.7265 113.25 25.1616 112.829 25.352C112.421 25.5423 111.755 25.7871 111.333 25.8822C110.926 25.9774 109.947 26.059 109.158 26.059C108.247 26.059 107.418 25.9638 106.847 25.8143C106.371 25.6919 105.609 25.3928 105.161 25.148C104.726 24.9169 104.114 24.4954 103.801 24.2371C103.502 23.9652 103.053 23.4485 102.822 23.0814C102.577 22.7143 102.292 22.0753 102.17 21.6674C102.047 21.2459 101.952 20.838 101.952 20.7428C101.952 20.6069 102.455 20.5797 106.221 20.6477L106.33 21.0556C106.398 21.2731 106.643 21.6538 106.887 21.8985C107.132 22.1433 107.567 22.4424 107.866 22.5647C108.247 22.7007 108.75 22.7551 109.457 22.7279C110.382 22.6871 110.558 22.6327 111.021 22.2656C111.456 21.9121 111.551 21.749 111.578 21.2731C111.592 20.9604 111.551 20.5933 111.469 20.4437C111.401 20.2942 111.007 20.0086 110.586 19.8319C110.178 19.6415 108.94 19.2337 107.839 18.9345C106.738 18.6354 105.501 18.2275 105.079 18.0372C104.671 17.8468 104.073 17.4661 103.747 17.1942C103.407 16.9087 102.999 16.3784 102.795 15.957C102.496 15.3179 102.428 15.0188 102.428 14.0535C102.428 13.0745 102.496 12.7754 102.795 12.15C102.999 11.7285 103.461 11.1167 103.815 10.7904C104.182 10.4505 104.834 10.0018 105.256 9.79784C105.691 9.59389 106.452 9.33556 106.955 9.22679C107.567 9.09083 108.329 9.03645 109.226 9.07723ZM135.467 9.10443C135.997 9.13162 136.854 9.29477 137.37 9.45793C137.982 9.64828 138.621 9.97459 139.138 10.3689C139.573 10.7088 140.144 11.2934 140.402 11.6741C140.647 12.0412 140.973 12.6667 141.123 13.0609C141.272 13.4552 141.449 14.1894 141.517 14.6925C141.599 15.1956 141.653 17.9148 141.653 25.8822H137.438L137.397 20.6749C137.37 15.9298 137.343 15.4131 137.098 14.8013C136.962 14.4206 136.636 13.9175 136.391 13.6728C136.147 13.428 135.752 13.1289 135.508 13.0066C135.263 12.8842 134.637 12.7482 134.107 12.721C133.591 12.6802 132.911 12.721 132.612 12.8026C132.312 12.8842 131.809 13.1289 131.497 13.3601C131.143 13.6048 130.762 14.0535 130.164 15.2092L130.096 25.8822H125.881V9.29478H130.096V11.2662L130.749 10.6544C131.102 10.3281 131.701 9.90661 132.068 9.74345C132.448 9.5667 133.155 9.33556 133.631 9.24039C134.148 9.11802 134.923 9.06364 135.467 9.10443ZM151.238 9.03645C151.619 9.02285 152.353 9.11802 152.87 9.22679C153.4 9.33556 154.162 9.59389 154.57 9.79784C154.964 10.0018 155.589 10.4505 155.956 10.7904C156.324 11.1167 156.65 11.3614 156.691 11.3342C156.731 11.2934 156.759 10.8176 156.745 9.29478H160.96V18.2275C160.946 23.1494 160.892 27.5138 160.824 27.9489C160.756 28.3839 160.511 29.1997 160.294 29.7844C160.049 30.4098 159.614 31.1712 159.233 31.6335C158.88 32.0821 158.186 32.694 157.697 33.0203C157.221 33.333 156.446 33.7273 155.997 33.8768C155.549 34.0264 154.61 34.2303 153.89 34.3255C152.856 34.4615 152.53 34.5703 152.217 34.8422C151.918 35.1141 151.823 35.3181 151.81 35.7531C151.796 36.1474 151.864 36.4058 152.054 36.6233C152.204 36.7864 152.557 37.0312 152.843 37.1807C153.128 37.3167 154.257 37.6838 155.358 37.9965C156.459 38.2956 157.724 38.7171 158.173 38.9211C158.621 39.1114 159.287 39.5465 159.655 39.8864C160.022 40.2127 160.443 40.743 160.593 41.0421C160.797 41.4228 160.892 41.9258 160.933 42.7416C160.987 43.707 160.946 44.0197 160.674 44.7131C160.484 45.2297 160.144 45.7464 159.75 46.1407C159.41 46.4806 158.73 46.9565 158.241 47.1876C157.765 47.4051 157.031 47.6771 156.609 47.7722C156.201 47.8674 155.195 47.949 154.366 47.9354C153.169 47.9354 152.666 47.8538 151.782 47.5819C151.184 47.3915 150.314 46.9837 149.824 46.6573C149.349 46.331 148.778 45.8552 148.574 45.5968C148.356 45.3249 148.043 44.8354 147.853 44.5091C147.676 44.1692 147.472 43.571 147.296 42.4697L151.51 42.4561L151.619 42.9048C151.687 43.1495 151.959 43.5574 152.245 43.8293C152.517 44.0876 152.992 44.3732 153.292 44.4683C153.591 44.5635 154.175 44.6315 154.61 44.6315C155.045 44.6315 155.589 44.5499 155.834 44.4547C156.079 44.346 156.432 44.1012 156.609 43.8973C156.854 43.639 156.949 43.3806 156.949 43.0135C156.949 42.7416 156.867 42.4017 156.745 42.2657C156.636 42.1298 156.296 41.8986 155.997 41.7491C155.698 41.5995 154.542 41.2188 153.414 40.8925C152.299 40.5798 151.048 40.1855 150.627 40.036C150.205 39.8864 149.566 39.4785 149.131 39.0978C148.723 38.7307 148.247 38.1461 148.084 37.7926C147.921 37.4527 147.744 36.8408 147.69 36.4465C147.635 35.9843 147.69 35.4404 147.826 34.883C147.948 34.4207 148.22 33.7681 148.438 33.4554C148.655 33.1426 149.036 32.7076 149.281 32.49C149.539 32.2725 150.096 31.919 150.531 31.7014C150.967 31.4839 151.388 31.3207 151.483 31.3207C151.578 31.3207 151.81 31.1984 151.986 31.0624C152.19 30.8993 152.707 30.7361 153.21 30.6681C153.699 30.5865 154.311 30.4234 154.57 30.301C154.842 30.1651 155.249 29.8659 155.508 29.6348C155.752 29.4037 156.065 28.9958 156.201 28.7374C156.337 28.4655 156.514 27.9489 156.582 27.5818C156.65 27.2011 156.718 26.1814 156.731 25.2976C156.745 24.4138 156.704 23.6932 156.65 23.6932C156.595 23.6932 156.337 23.9108 156.065 24.1827C155.807 24.4546 155.29 24.8625 154.909 25.0936C154.542 25.3384 153.903 25.6239 153.482 25.7599C153.074 25.8822 152.408 26.0182 151.986 26.0726C151.578 26.1134 150.803 26.0862 150.26 26.0182C149.716 25.9366 148.954 25.7463 148.56 25.5831C148.166 25.42 147.472 25.0257 147.024 24.713C146.575 24.4002 145.963 23.8156 145.65 23.4077C145.338 23.0134 144.889 22.32 144.671 21.8713C144.454 21.4227 144.155 20.6477 144.032 20.1718C143.869 19.56 143.788 18.7578 143.774 17.5885C143.774 16.3648 143.842 15.6306 144.005 15.0052C144.141 14.5157 144.454 13.6864 144.712 13.1697C144.957 12.6395 145.46 11.8781 145.827 11.4702C146.194 11.0623 146.847 10.5048 147.296 10.2057C147.744 9.9202 148.478 9.5667 148.927 9.43074C149.376 9.28118 149.933 9.14522 150.151 9.11802C150.382 9.07723 150.871 9.05004 151.238 9.03645ZM173.468 9.02285L173.4 11.4022L170.518 11.4294C168.37 11.4566 167.527 11.511 167.255 11.6605C167.051 11.7557 166.752 11.9732 166.602 12.15C166.398 12.3811 166.33 12.6395 166.33 13.3737C166.33 14.1758 166.385 14.3526 166.67 14.6653C166.861 14.8692 167.214 15.114 167.459 15.2228C167.785 15.3587 168.628 15.4131 173.468 15.4131V17.7245H170.681C168.628 17.7245 167.785 17.7653 167.459 17.9012C167.214 18.01 166.861 18.2547 166.67 18.4587C166.385 18.7714 166.33 18.9481 166.33 19.7639C166.33 20.6069 166.371 20.7292 166.738 21.1099C166.969 21.3411 167.364 21.5994 167.622 21.6674C167.894 21.7354 169.308 21.7898 173.468 21.8033V24.1147H164.359V21.8033H164.767C164.998 21.8033 165.175 21.7354 165.175 21.6674C165.175 21.5858 165.12 21.4906 165.039 21.4634C164.971 21.4227 164.753 21.0692 164.576 20.6749C164.345 20.1854 164.237 19.7231 164.223 19.2201C164.223 18.7986 164.318 18.146 164.427 17.7517C164.576 17.2486 164.808 16.8679 165.787 15.9026L165.243 15.3451C164.916 15.0188 164.59 14.5157 164.454 14.1215C164.332 13.7408 164.223 13.0745 164.237 12.6259C164.237 12.0956 164.332 11.5789 164.508 11.1983C164.658 10.8583 164.984 10.3825 165.229 10.1241C165.46 9.87941 165.841 9.5803 166.058 9.45793C166.29 9.34916 166.752 9.1996 167.078 9.14522C167.418 9.09083 168.995 9.03645 173.468 9.02285ZM88.0158 9.36276L88.0566 14.4614C88.0838 17.2622 88.1518 19.7775 88.2333 20.063C88.3013 20.3485 88.5596 20.838 88.8044 21.1507C89.0627 21.477 89.5386 21.8713 89.9329 22.0753C90.4767 22.3472 90.803 22.4152 91.6868 22.4152C92.6521 22.4152 92.8697 22.3608 93.5223 22.0073C93.9166 21.7762 94.3924 21.3819 94.5692 21.1235C94.746 20.8516 94.9771 20.335 95.0994 19.9679C95.2626 19.4104 95.3034 18.3635 95.2898 9.29478H99.5046V25.8822H95.2898V23.9788L94.6508 24.5226C94.2973 24.8217 93.7262 25.2024 93.3863 25.3656C93.06 25.5287 92.4754 25.7327 92.0947 25.8278C91.7276 25.923 90.9798 26.0046 90.4359 26.0046C89.8921 26.0046 89.1307 25.9366 88.7364 25.855C88.3421 25.7735 87.6895 25.5423 87.2816 25.352C86.8737 25.148 86.2211 24.713 85.854 24.373C85.4733 24.0195 84.9702 23.3805 84.7391 22.9454C84.4944 22.4968 84.1952 21.7762 84.0729 21.3275C83.8689 20.6205 83.8145 19.7231 83.7602 15.0188C83.733 12.0004 83.7466 9.48512 83.8009 9.40354C83.8553 9.33556 84.7799 9.29478 88.0158 9.36276ZM120.443 9.29478C122.142 9.29478 122.496 9.32197 122.55 9.49872C122.591 9.60749 122.605 13.3193 122.55 25.8143H118.335L118.308 17.7245C118.281 13.2649 118.295 9.5531 118.335 9.45793C118.39 9.33556 118.934 9.29478 120.443 9.29478ZM169.254 25.4064C170.029 25.4472 170.477 25.5559 171.089 25.855C171.538 26.0726 172.122 26.4941 172.381 26.7796C172.639 27.0651 173.006 27.6362 173.196 28.0576C173.496 28.6967 173.536 28.9822 173.536 30.0971C173.536 31.1712 173.482 31.4975 173.196 32.1093C173.006 32.5308 172.585 33.1019 172.218 33.4418C171.864 33.7681 171.279 34.176 170.926 34.3391C170.396 34.5974 170.042 34.6518 168.914 34.6518C167.731 34.6518 167.459 34.5974 166.806 34.2847C166.398 34.0944 165.827 33.7001 165.528 33.401C165.229 33.1155 164.835 32.5444 164.644 32.1365C164.386 31.5655 164.291 31.1032 164.25 30.233C164.209 29.2813 164.264 28.9278 164.508 28.2616C164.685 27.7993 165.066 27.1875 165.379 26.8476C165.678 26.5213 166.167 26.1134 166.466 25.9366C166.765 25.7599 167.296 25.5559 167.622 25.4743C167.962 25.4064 168.696 25.3656 169.254 25.4064ZM74.0116 30.9808C74.9906 31.008 75.6976 31.1168 76.459 31.3615C77.0572 31.5519 77.9138 31.9462 78.3624 32.2317C78.8111 32.5308 79.4501 33.0339 79.79 33.3602C80.1164 33.7001 80.5922 34.2847 80.837 34.679C81.0817 35.0733 81.4624 35.8619 81.6663 36.4465C81.9926 37.3983 82.0334 37.6838 82.0334 39.4105C82.0334 41.0693 81.9926 41.4364 81.7071 42.3337C81.5168 42.8912 81.0817 43.7749 80.7418 44.3052C80.3883 44.8218 79.8036 45.5153 79.4365 45.8416C79.0694 46.1679 78.4032 46.6301 77.9545 46.8885C77.5059 47.1332 76.6493 47.4731 76.0511 47.6499C75.2489 47.8674 74.5963 47.949 73.5358 47.949C72.6384 47.949 71.809 47.8674 71.2652 47.7179C70.8029 47.5955 70.0007 47.2964 69.4977 47.0516C68.8858 46.7661 68.2468 46.2902 67.6078 45.6648C66.8464 44.917 66.5065 44.4547 66.0714 43.5574C65.7179 42.8096 65.4324 41.9802 65.2964 41.246C65.174 40.5118 65.1197 39.6825 65.1604 39.0026C65.2012 38.4044 65.3236 37.507 65.4596 37.0312C65.5819 36.5417 65.8946 35.7123 66.1666 35.1957C66.4793 34.5974 66.9959 33.904 67.5534 33.3602C68.0836 32.8299 68.8178 32.2725 69.3889 31.9734C69.9191 31.7014 70.6805 31.3751 71.0884 31.2664C71.5099 31.144 72.0266 31.0216 72.2441 30.9944C72.4753 30.9536 73.2638 30.9536 74.0116 30.9808ZM92.2986 30.9808C93.0192 31.0216 93.903 31.1304 94.2701 31.2256C94.6508 31.3207 95.317 31.5655 95.7657 31.7694C96.2143 31.987 96.9214 32.4084 97.3157 32.7212C97.7235 33.0339 98.3218 33.6593 98.6617 34.108C99.0016 34.5567 99.4231 35.2501 99.6134 35.6716C99.7902 36.0794 100.035 36.8136 100.144 37.3031C100.252 37.779 100.348 38.7987 100.334 39.5465C100.334 40.2943 100.239 41.2596 100.13 41.7219C100.008 42.1706 99.695 42.9863 99.4095 43.5574C99.056 44.278 98.6345 44.849 97.9547 45.5289C97.2749 46.2087 96.7038 46.6437 95.9696 46.9973C95.4122 47.2692 94.5556 47.5955 94.0661 47.7179C93.5087 47.8674 92.6657 47.949 91.7548 47.949C90.8302 47.949 90.028 47.8674 89.4434 47.7043C88.9675 47.5683 88.1654 47.2692 87.6759 47.0244C87.2 46.7797 86.425 46.2359 85.9763 45.828C85.5277 45.4201 84.9294 44.6859 84.6575 44.21C84.372 43.7341 83.9777 42.864 83.7874 42.2657C83.4882 41.3412 83.4339 40.9197 83.4202 39.5465C83.4202 38.2141 83.4746 37.7246 83.7194 36.8952C83.8961 36.3242 84.2496 35.4676 84.5215 34.9917C84.7935 34.5023 85.3781 33.7409 85.8404 33.2922C86.3027 32.8299 87.0776 32.2453 87.6215 31.9734C88.1382 31.7014 88.9267 31.3751 89.3754 31.2664C89.8241 31.1576 90.3815 31.0352 90.5991 30.9944C90.8302 30.9536 91.5916 30.9536 92.2986 30.9808ZM102.632 30.9129H106.86L106.915 38.0781L112.353 31.1848H114.977C116.418 31.1848 117.615 31.2256 117.642 31.28C117.669 31.3343 116.106 33.1834 114.175 35.3996C112.244 37.6022 110.654 39.4513 110.654 39.5057C110.654 39.5601 112.244 41.382 114.189 43.5574C116.133 45.7192 117.724 47.5547 117.724 47.6363C117.724 47.7179 116.758 47.7722 112.489 47.7722L106.915 40.7973L106.847 47.7722H102.632V30.9129ZM126.969 30.9672C127.785 31.008 128.614 31.1304 129.213 31.3207C129.743 31.4839 130.504 31.8102 130.912 32.0413C131.334 32.2725 132 32.8027 132.408 33.2106C132.829 33.6321 133.387 34.3935 133.659 34.9238C133.93 35.4404 134.257 36.2426 134.366 36.6913C134.474 37.1399 134.583 37.9965 134.61 38.5947C134.624 39.193 134.624 39.9 134.583 40.7022H122.482L122.564 41.2052C122.605 41.4908 122.781 42.021 122.958 42.4017C123.135 42.7688 123.488 43.2447 123.733 43.4622C123.978 43.6798 124.427 43.9789 124.726 44.142C125.161 44.3596 125.528 44.4276 126.425 44.4276C127.282 44.4276 127.717 44.3596 128.057 44.1828C128.329 44.0333 128.709 43.7613 128.927 43.571C129.131 43.367 129.403 43.0407 129.688 42.4697H131.932C133.645 42.4697 134.189 42.5105 134.189 42.6328C134.189 42.728 133.958 43.2583 133.686 43.8293C133.332 44.5363 132.911 45.1074 132.258 45.76C131.605 46.4126 131.034 46.8069 130.341 47.1332C129.797 47.3915 129.022 47.6771 128.601 47.7858C128.193 47.881 127.241 47.949 126.493 47.949C125.677 47.949 124.78 47.8538 124.25 47.7179C123.774 47.5955 122.972 47.2964 122.482 47.0516C121.911 46.7661 121.272 46.2766 120.647 45.6648C120.117 45.1346 119.505 44.346 119.26 43.8973C119.029 43.4486 118.703 42.5921 118.553 41.9938C118.363 41.2324 118.268 40.471 118.268 39.5057C118.268 38.7443 118.376 37.6702 118.485 37.1264C118.607 36.5825 118.92 35.7123 119.165 35.1957C119.423 34.6654 119.899 33.9312 120.225 33.5641C120.538 33.1834 121.177 32.6396 121.612 32.3405C122.061 32.0413 122.822 31.6607 123.298 31.4839C123.788 31.3071 124.522 31.1032 124.93 31.0352C125.351 30.9808 126.262 30.94 126.969 30.9672ZM145.827 30.94C146.099 30.94 146.113 30.9944 146.153 35.3316L144.821 35.3996C143.679 35.4676 143.393 35.5356 142.741 35.8891C142.129 36.229 141.925 36.4465 141.177 37.8877L141.109 47.7722H136.894V31.1848H141.109V33.4961L141.857 32.7484C142.279 32.3269 142.918 31.8374 143.285 31.6607C143.665 31.4703 144.318 31.2256 144.753 31.1304C145.188 31.0352 145.664 30.94 145.827 30.94ZM167.391 35.3996C167.459 35.3996 167.486 35.9435 167.459 36.6233C167.432 37.8062 167.404 37.8741 167.051 38.0917C166.847 38.2141 166.575 38.4996 166.453 38.7307C166.317 38.9483 166.208 39.4241 166.208 39.764C166.208 40.1991 166.29 40.5254 166.48 40.7838C166.629 41.0013 167.037 41.314 167.364 41.4772C167.826 41.7083 168.193 41.7899 168.914 41.7763C169.634 41.7763 170.015 41.7083 170.464 41.4772C170.817 41.3004 171.171 40.9741 171.334 40.7022C171.551 40.3351 171.606 40.0496 171.565 39.5193C171.511 38.9619 171.415 38.7307 171.089 38.3908C170.872 38.1597 170.613 37.9693 170.518 37.9693C170.396 37.9693 170.341 37.6294 170.341 36.6913C170.341 35.4132 170.355 35.3996 170.654 35.4812C170.817 35.522 171.171 35.6716 171.429 35.8075C171.701 35.9435 172.136 36.2834 172.408 36.5689C172.693 36.8544 173.047 37.3983 173.224 37.779C173.387 38.1461 173.55 38.8531 173.577 39.3425C173.632 39.9408 173.577 40.471 173.414 41.0421C173.278 41.4908 172.979 42.1162 172.748 42.4425C172.517 42.7688 172.041 43.2175 171.701 43.435C171.375 43.6526 170.844 43.9109 170.545 43.9925C170.246 44.0741 169.458 44.1556 168.778 44.1556C167.676 44.1556 167.472 44.1148 166.67 43.7341C166.14 43.4758 165.596 43.0815 165.283 42.7144C164.998 42.3881 164.631 41.7899 164.481 41.382C164.25 40.7702 164.209 40.4031 164.264 39.4105C164.305 38.4316 164.386 38.0373 164.658 37.507C164.848 37.1264 165.27 36.5961 165.61 36.3106C165.936 36.0251 166.439 35.7123 166.738 35.6036C167.037 35.4948 167.336 35.4132 167.391 35.3996ZM15.6156 38.7987H24.5892L24.5212 47.8402L15.6156 47.9082V38.7987ZM172.177 45.053C172.435 45.053 172.816 45.1482 173.006 45.2841C173.196 45.4201 173.414 45.7056 173.482 45.9367C173.55 46.1543 173.564 46.5486 173.509 46.8069C173.455 47.0516 173.237 47.4051 173.033 47.5819C172.829 47.7586 172.503 47.9082 172.313 47.9082C172.136 47.9082 171.796 47.813 171.565 47.7043C171.347 47.5819 171.103 47.3779 171.021 47.2284C170.953 47.0788 170.899 46.6981 170.899 46.399C170.912 45.9775 171.007 45.7464 171.293 45.4473C171.579 45.1482 171.81 45.053 172.177 45.053Z" fill="#2A3DAE"/>
<path d="M119.073 1.79073C119.168 1.45083 119.372 1.1789 119.671 1.00215C119.902 0.852591 120.242 0.730225 120.419 0.730225C120.582 0.730225 120.895 0.825399 121.126 0.934169C121.371 1.05654 121.615 1.34206 121.751 1.64118C121.86 1.9267 121.928 2.30739 121.887 2.49774C121.847 2.68809 121.643 3.0144 121.439 3.21834C121.18 3.47667 120.895 3.61264 120.568 3.62623C120.297 3.63983 119.916 3.55825 119.712 3.44948C119.508 3.34071 119.25 3.028 119.127 2.76967C118.964 2.38897 118.951 2.19862 119.073 1.79073Z" fill="white"/>
<path d="M70.6157 13.5787C70.9013 13.3612 71.4587 13.062 71.8258 12.9261C72.3425 12.7493 72.7504 12.7085 73.403 12.7629C73.9332 12.8037 74.5587 12.9669 74.9666 13.1572C75.3473 13.334 75.8503 13.7147 76.1086 14.0138C76.367 14.2993 76.7341 14.8704 76.9108 15.2782C77.1556 15.7949 77.2779 16.3523 77.3187 17.1137C77.3595 17.8615 77.3051 18.4734 77.1556 19.0852C77.0332 19.6019 76.7205 20.2817 76.4214 20.7168C76.0271 21.3014 75.7144 21.5597 75.0345 21.9268C74.2731 22.3211 74.0148 22.3755 73.1311 22.3891C72.3425 22.4027 71.9482 22.3347 71.4315 22.09C71.0644 21.9268 70.5478 21.6005 70.303 21.3558C70.0447 21.111 69.7048 20.6488 69.528 20.3089C69.3513 19.969 69.1338 19.2755 69.0522 18.7453C68.957 18.215 68.9162 17.4265 68.957 16.9778C69.0114 16.5291 69.1066 15.9445 69.1745 15.6861C69.2561 15.4278 69.4873 14.9383 69.7048 14.5984C69.9087 14.2585 70.3166 13.7962 70.6157 13.5787Z" fill="white"/>
<path d="M150.399 13.2252C150.671 13.0756 151.133 12.9125 151.418 12.8581C151.69 12.7901 152.261 12.7629 152.669 12.7901C153.159 12.8309 153.716 12.9941 154.301 13.2796C154.913 13.5787 155.321 13.905 155.66 14.3537C155.919 14.6936 156.245 15.2782 156.381 15.6453C156.503 15.9988 156.639 16.7194 156.653 17.2497C156.68 17.78 156.612 18.5685 156.517 19.0172C156.395 19.4931 156.109 20.1457 155.824 20.5672C155.552 20.9615 155.049 21.4781 154.709 21.6957C154.369 21.9132 153.879 22.1444 153.621 22.2123C153.363 22.2939 152.751 22.3483 152.261 22.3619C151.541 22.3619 151.228 22.2939 150.535 21.954C149.991 21.6821 149.501 21.315 149.216 20.9479C148.957 20.6352 148.604 20.0641 148.427 19.697C148.155 19.1124 148.115 18.7997 148.115 17.5216C148.115 16.3116 148.169 15.9037 148.4 15.4142C148.55 15.0743 148.944 14.5033 149.284 14.1362C149.61 13.7827 150.113 13.3612 150.399 13.2252Z" fill="white"/>
<path d="M166.619 28.7793C166.769 28.5754 167.163 28.2627 167.503 28.0859C167.924 27.8684 168.346 27.7868 168.917 27.7868C169.501 27.7868 169.896 27.8684 170.331 28.0859C170.752 28.3035 171.024 28.5754 171.255 29.0105C171.432 29.3504 171.568 29.8263 171.568 30.0574C171.568 30.3021 171.5 30.6692 171.419 30.8732C171.337 31.0907 171.147 31.4034 170.983 31.5666C170.82 31.7433 170.508 31.9881 170.276 32.0968C170.032 32.2328 169.501 32.3144 168.917 32.328C168.169 32.328 167.843 32.2736 167.421 32.0289C167.095 31.8521 166.741 31.4986 166.551 31.1451C166.293 30.6964 166.238 30.4245 166.279 29.8671C166.306 29.4456 166.442 29.0105 166.619 28.7793Z" fill="white"/>
<path d="M123.872 35.3328C124.199 35.0336 124.688 34.7209 124.946 34.6393C125.205 34.5442 125.857 34.4762 126.401 34.4626C127.027 34.449 127.584 34.5306 127.965 34.6801C128.278 34.8025 128.781 35.088 129.066 35.3192C129.379 35.5639 129.732 36.0262 129.909 36.4205C130.072 36.7876 130.235 37.277 130.303 37.8753L126.496 37.8617C124.403 37.8617 122.649 37.8481 122.594 37.8481C122.526 37.8481 122.554 37.6169 122.635 37.3314C122.717 37.0595 122.893 36.6108 123.029 36.3525C123.152 36.0941 123.532 35.6319 123.872 35.3328Z" fill="white"/>
<path d="M53.0766 35.2512C53.3077 35.1152 53.8243 34.9113 54.2322 34.8025C54.6537 34.6801 55.2384 34.6122 55.5919 34.6529C55.9318 34.6937 56.5164 34.8297 56.8835 34.9657C57.3186 35.1152 57.8081 35.4415 58.2567 35.8766C58.7054 36.3253 59.0453 36.8147 59.2221 37.3042C59.3852 37.7121 59.5484 38.4191 59.6028 38.8678C59.6707 39.3708 59.63 39.9963 59.5348 40.4993C59.4396 40.948 59.2357 41.587 59.0589 41.9269C58.8958 42.2669 58.4199 42.8379 58.0256 43.1914C57.6177 43.5449 57.0195 43.9392 56.6796 44.048C56.3397 44.1567 55.6734 44.2519 55.184 44.2519C54.477 44.2519 54.1371 44.1703 53.4572 43.844C52.9134 43.5721 52.4239 43.205 52.1384 42.8379C51.8801 42.5252 51.5266 41.9541 51.3498 41.587C51.0915 41.016 51.0371 40.6761 51.0371 39.4796C51.0371 38.2288 51.0779 37.9568 51.3906 37.3042C51.581 36.8963 51.9481 36.3253 52.2064 36.0262C52.4647 35.7406 52.859 35.4007 53.0766 35.2512Z" fill="white"/>
<path d="M71.2004 35.3735C71.5539 35.1288 72.0841 34.8569 72.3833 34.7617C72.7232 34.6529 73.2806 34.6122 73.8789 34.6529C74.4907 34.6937 75.0481 34.8297 75.4288 35.0336C75.7551 35.1968 76.2718 35.6047 76.5845 35.9446C76.9244 36.2981 77.2915 36.8963 77.4683 37.3722C77.6994 37.9704 77.781 38.4871 77.781 39.3437C77.781 39.9963 77.6994 40.8256 77.577 41.2471C77.4547 41.655 77.1692 42.2533 76.9516 42.566C76.7205 42.8923 76.3262 43.3002 76.095 43.4769C75.8503 43.6673 75.4016 43.8984 75.1025 44.0072C74.8034 44.1159 74.3411 44.2383 74.0828 44.2927C73.8245 44.3335 73.2398 44.3063 72.7912 44.2383C72.2745 44.1431 71.7306 43.9392 71.3092 43.6537C70.9285 43.4225 70.4526 42.9467 70.2486 42.6068C70.0311 42.2669 69.7592 41.655 69.6368 41.2471C69.5145 40.8121 69.4329 40.0099 69.4329 39.3437C69.4465 38.6502 69.528 37.9432 69.664 37.5761C69.7864 37.2362 70.0311 36.706 70.2079 36.3797C70.3982 36.067 70.8333 35.6183 71.2004 35.3735Z" fill="white"/>
<path d="M89.8953 35.0472C90.0992 34.9385 90.4935 34.8025 90.779 34.7345C91.0509 34.6665 91.5268 34.5986 91.8259 34.5986C92.1251 34.585 92.6417 34.6665 92.9816 34.7617C93.3215 34.8569 93.8926 35.1424 94.2461 35.4007C94.6132 35.6591 95.089 36.1485 95.3066 36.4884C95.5105 36.8283 95.7825 37.4946 95.8776 37.984C95.9728 38.4735 96.0408 39.3165 96.0136 39.8467C95.9864 40.3906 95.8504 41.1656 95.7145 41.5463C95.5649 41.9405 95.1842 42.566 94.8579 42.9195C94.5044 43.3138 93.9742 43.7217 93.5255 43.9392C92.9272 44.2111 92.5737 44.2791 91.758 44.2791C90.9422 44.2791 90.6023 44.2111 90.0584 43.9256C89.6913 43.7353 89.1475 43.341 88.8755 43.0554C88.6036 42.7699 88.2365 42.2261 88.0598 41.859C87.7878 41.2607 87.7471 40.9616 87.7471 39.4796C87.7471 37.9976 87.7878 37.6985 88.0598 37.1003C88.2365 36.7196 88.6308 36.1621 88.9435 35.8358C89.2562 35.5095 89.6777 35.156 89.8953 35.0472Z" fill="white"/>
</svg>
